name rise44.8762peak52.3436fall86.788.mot
datacolumns 19
datarows 14
range 13.49994900000000 13.52161000000000
endheader
time	ground_force1_vx	ground_force1_vy	ground_force1_vz	ground_force1_px	ground_force1_py	ground_force1_pz	ground_force2_vx	ground_force2_vy	ground_force2_vz	ground_force2_px	ground_force2_py	ground_force2_pz	ground_torque1_x	ground_torque1_y	ground_torque1_z	ground_torque2_x	ground_torque2_y	ground_torque2_z	
13.49994900000000	-7.03966700000000	42.11703100000000	-9.53924600000000	0.28688100000000	0.00000000000000	0.08785400000000	-42.22837600000000	798.87411399999996	-63.23769700000000	0.08541000000000	0.00000000000000	-0.10952900000000	0.00000000000000	-5.33588200000000	0.00000000000000	0.00000000000000	-17.16083900000000	0.00000000000000	
13.50161300000000	-7.74482800000000	49.25445000000000	-10.74193200000000	0.29041200000000	0.00000000000000	0.08871200000000	-42.83941300000000	796.49321599999996	-62.93278100000000	0.08473800000000	0.00000000000000	-0.10944700000000	0.00000000000000	-6.06996900000000	0.00000000000000	0.00000000000000	-17.15372400000000	0.00000000000000	
13.50328300000000	-8.32179300000000	56.45070500000000	-11.83988700000000	0.29368700000000	0.00000000000000	0.08949400000000	-43.46621600000000	793.99341500000003	-62.60549200000000	0.08406900000000	0.00000000000000	-0.10936000000000	0.00000000000000	-6.75870200000000	0.00000000000000	0.00000000000000	-17.15030800000000	0.00000000000000	
13.50495600000000	-8.75076200000000	63.60985700000000	-12.80775600000000	0.29674500000000	0.00000000000000	0.09021200000000	-44.10855700000000	791.37321199999997	-62.25557000000000	0.08340500000000	0.00000000000000	-0.10927000000000	0.00000000000000	-7.38700200000000	0.00000000000000	0.00000000000000	-17.15060400000000	0.00000000000000	
13.50661400000000	-9.01948800000000	70.65978300000000	-13.62855100000000	0.29961400000000	0.00000000000000	0.09087400000000	-44.76612700000000	788.63105499999995	-61.88277600000000	0.08274400000000	0.00000000000000	-0.10917600000000	0.00000000000000	-7.94424200000000	0.00000000000000	0.00000000000000	-17.15460600000000	0.00000000000000	
13.50828000000000	-9.12320300000000	77.55430400000000	-14.29378200000000	0.30231800000000	0.00000000000000	0.09148900000000	-45.43853000000000	785.76533500000005	-61.48689000000000	0.08208700000000	0.00000000000000	-0.10907800000000	0.00000000000000	-8.42443900000000	0.00000000000000	0.00000000000000	-17.16228600000000	0.00000000000000	
13.50995100000000	-9.06395600000000	84.27283199999999	-14.80287100000000	0.30487900000000	0.00000000000000	0.09206400000000	-46.12528900000000	782.77439500000003	-61.06771600000000	0.08143500000000	0.00000000000000	-0.10897500000000	0.00000000000000	-8.82602900000000	0.00000000000000	0.00000000000000	-17.17359300000000	0.00000000000000	
13.51161000000000	-8.84950500000000	90.81797200000000	-15.16202600000000	0.30731100000000	0.00000000000000	0.09260300000000	-46.82583700000000	779.65652699999998	-60.62508600000000	0.08078700000000	0.00000000000000	-0.10886900000000	0.00000000000000	-9.15132200000000	0.00000000000000	0.00000000000000	-17.18845800000000	0.00000000000000	
13.51328400000000	-8.49193300000000	97.21162300000000	-15.38274100000000	0.30962800000000	0.00000000000000	0.09311000000000	-47.53951900000000	776.40997900000002	-60.15885400000000	0.08014400000000	0.00000000000000	-0.10875800000000	0.00000000000000	-9.40572900000000	0.00000000000000	0.00000000000000	-17.20678500000000	0.00000000000000	
13.51495100000000	-8.00615800000000	103.49018599999999	-15.48013400000000	0.31184100000000	0.00000000000000	0.09359100000000	-48.26559400000000	773.03295700000001	-59.66890600000000	0.07950600000000	0.00000000000000	-0.10864300000000	0.00000000000000	-9.59686400000000	0.00000000000000	0.00000000000000	-17.22845900000000	0.00000000000000	
13.51661100000000	-7.40846500000000	109.69940400000000	-15.47127600000000	0.31396000000000	0.00000000000000	0.09404700000000	-49.00322900000000	769.52363100000002	-59.15515800000000	0.07887400000000	0.00000000000000	-0.10852300000000	0.00000000000000	-9.73362600000000	0.00000000000000	0.00000000000000	-17.25334300000000	0.00000000000000	
13.51828100000000	-6.71519000000000	115.88934000000000	-15.37364900000000	0.31599300000000	0.00000000000000	0.09448100000000	-49.75150100000000	765.88013899999999	-58.61755900000000	0.07824700000000	0.00000000000000	-0.10840000000000	0.00000000000000	-9.82532800000000	0.00000000000000	0.00000000000000	-17.28127400000000	0.00000000000000	
13.51994400000000	-5.94162600000000	122.10985300000000	-15.20384000000000	0.31794600000000	0.00000000000000	0.09489600000000	-50.50939800000000	762.10059400000000	-58.05609100000000	0.07762600000000	0.00000000000000	-0.10827200000000	0.00000000000000	-9.88094500000000	0.00000000000000	0.00000000000000	-17.31207000000000	0.00000000000000	
13.52161000000000	-5.10120200000000	128.40685700000000	-14.97652500000000	0.31982500000000	0.00000000000000	0.09529300000000	-51.27581900000000	758.18309099999999	-57.47077400000000	0.07701200000000	0.00000000000000	-0.10813900000000	0.00000000000000	-9.90850800000000	0.00000000000000	0.00000000000000	-17.34552600000000	0.00000000000000	
